<svg xmlns="http://www.w3.org/2000/svg" xmlns:xlink="http://www.w3.org/1999/xlink" width="566.434" height="354.447" viewBox="0 0 566.434 354.447"><defs><style>.a{fill:none;}.b{opacity:0.8;}.c{opacity:0.5;}.d{fill:#ced3e6;}.e{fill:#f6dff5;}.f{fill:#f3d7f2;}.g{fill:#f0d9ef;}.h{fill:#f2c7f1;}.i{fill:#fff;}.j{fill:#585859;}.k{fill:#39393b;}.l{fill:#df615c;}.m{fill:#5392f3;}.n{fill:#d2dcec;}.o{clip-path:url(#a);}.p{fill:#ea9b7a;}.q{fill:#d96c63;}.r{fill:#faaf3a;}.s{fill:#c77e2e;}.t{fill:#0197f6;}.u{fill:#084fc7;}.v{fill:#41ead4;}.w{fill:#12a592;}.x{fill:#21b573;}.y{fill:#217c58;}.z{fill:#0875f7;}.aa{fill:#b11722;}</style><clipPath id="a"><path class="a" d="M342,236.357c-1.1,3.362-1.1,3.983-1.1,3.362V72.43H558.453V236.307Z" transform="translate(-340.9 -72.43)"/></clipPath></defs><g transform="translate(776.202 -168.286)"><g transform="translate(-776.202 168.286)"><g class="b" transform="translate(47.044 1.23)"><g class="c" transform="translate(0 39.981)"><path class="d" d="M339.068,161.6a122.278,122.278,0,0,1-55.735-23.615c-24.615-18.581-76.131-50.2-125.277-34.456-67.778,21.724-68.072,84.56-50.424,118.7S250.5,356.322,412.813,340.421C558.05,326.194,586.354,163.275,508.92,133.794,441.689,108.221,418.78,173.376,339.068,161.6Z" transform="translate(-97.799 -99.274)"/></g><g class="c" transform="translate(444.073 71.417)"><ellipse class="d" cx="6.295" cy="6.782" rx="6.295" ry="6.782"/></g><path class="e" d="M143.773,91.6a4.093,4.093,0,0,1,4.572,2.521c1.16,3.143-1.883,6.664-5.967,5.042h0C138.848,96.63,140.378,92.227,143.773,91.6Z" transform="translate(-104.593 -58.056)"/><circle class="f" cx="8.202" cy="8.202" r="8.202" transform="translate(423.799 24.392) rotate(-80.75)"/><g class="b" transform="translate(47.755 21.019)"><path class="e" d="M170.908,82.769a8.278,8.278,0,1,1-3.916-5A8.295,8.295,0,0,1,170.908,82.769Z" transform="translate(-154.624 -76.711)"/></g><path class="d" d="M563.7,377.677a4.076,4.076,0,0,1,4.967,1.681c1.681,2.874-.6,6.9-4.916,6.11h0C559.795,383.534,560.484,378.921,563.7,377.677Z" transform="translate(-171.734 -103.683)"/><path class="d" d="M588.876,363.786a8.286,8.286,0,1,1-11.11-3.74A8.286,8.286,0,0,1,588.876,363.786Z" transform="translate(-173.671 -100.776)"/><circle class="g" cx="5.051" cy="5.051" r="5.051" transform="translate(412.668)"/></g><g class="b" transform="translate(39.364)"><path class="h" d="M532.547,147.952c0-45.087-37.549-94.494-84.266-97.486-.84-.059-1.681-.1-2.521-.143-66.988-3.118-72.089,78.577-132.69,87.8s-106.89-37.305-179.407-6.958C68.575,158.449,50.935,311.585,242.292,317.728,395.4,322.645,532.573,282.474,532.547,147.952Z" transform="translate(-88.66 -50.237)"/></g><ellipse class="d" cx="147.666" cy="7.614" rx="147.666" ry="7.614" transform="translate(215.536 306.898)"/><path class="d" d="M589.115,399.11H568.66v21.279h23.926V402.572a3.454,3.454,0,0,0-3.471-3.462Z" transform="translate(-125.907 -105.919)"/><rect class="d" width="71.03" height="45.6" transform="translate(333.292 247.591)"/><path class="i" d="M367.759,399.11h169.2a13.379,13.379,0,0,1,13.379,13.354v7.9H354.38v-7.9A13.379,13.379,0,0,1,367.759,399.11Z" transform="translate(-91.707 -105.919)"/><rect class="i" width="71.03" height="45.6" transform="translate(324.585 247.591)"/><path class="d" d="M428.05,358.851l71.03-5.689.008-8.311H428.142Z" transform="translate(-103.465 -97.259)"/><rect class="d" width="322.257" height="197.803" rx="11.29" transform="translate(199.425 49.796)"/><path class="j" d="M657.008,118.978V284.536H627.67V109.49h19.85A9.5,9.5,0,0,1,657.008,118.978Z" transform="translate(-135.326 -59.694)"/><path class="i" d="M589.309,118.978V297.805a9.48,9.48,0,0,1-9.488,9.488H288.608a9.48,9.48,0,0,1-9.488-9.488V118.978a9.488,9.488,0,0,1,9.488-9.488H581.124l.235.042h.345a9.5,9.5,0,0,1,7.605,9.446Z" transform="translate(-79.695 -59.694)"/><path class="k" d="M581.734,109.712h-.345l-.235-.042H288.638a9.488,9.488,0,0,0-9.488,9.488V284.716H589.339V119.158A9.5,9.5,0,0,0,581.734,109.712Zm-4.723,158.355a2.572,2.572,0,0,1-2.58,2.58H294.008a2.572,2.572,0,0,1-2.58-2.58V124.4a2.572,2.572,0,0,1,2.58-2.58H574.431a2.572,2.572,0,0,1,2.58,2.58Z" transform="translate(-79.699 -59.722)"/><rect class="d" width="285.582" height="148.825" rx="3.07" transform="translate(211.729 62.1)"/><path class="i" d="M579.343,126.71v13.556H293.76V126.71a2.572,2.572,0,0,1,2.58-2.58H576.763a2.571,2.571,0,0,1,2.58,2.58Z" transform="translate(-82.031 -62.03)"/><path class="l" d="M606.427,133.055a2.193,2.193,0,1,1-2.193-2.185A2.194,2.194,0,0,1,606.427,133.055Z" transform="translate(-131.235 -63.106)"/><circle class="m" cx="2.193" cy="2.193" r="2.193" transform="translate(477.915 67.755)"/><rect class="n" width="227.192" height="4.639" rx="2.319" transform="translate(236.663 67.629)"/><path d="M305.144,132.982v2.126a.395.395,0,0,1-.6.345l-1.857-1.076-1.857-1.076a.395.395,0,0,1,0-.681l1.857-1.076,1.857-1.076a.395.395,0,0,1,.6.345Z" transform="translate(-83.129 -63.033)"/><path d="M309.92,132.983v2.126a.4.4,0,0,0,.588.345l1.857-1.076,1.857-1.076a.387.387,0,0,0,0-.681l-1.857-1.076-1.857-1.076a.395.395,0,0,0-.588.345Z" transform="translate(-84.611 -63.034)"/><rect class="k" width="5.269" height="1.235" rx="0.618" transform="translate(484.772 71.296) rotate(-45)"/><rect class="k" width="1.235" height="5.269" rx="0.618" transform="translate(484.772 68.456) rotate(-45)"/><rect class="i" width="220.259" height="123.639" rx="6.42" transform="translate(244.008 81.513)"/><path class="d" d="M398.578,221.991H350.315a1.345,1.345,0,0,1-1.345-1.336h0a1.345,1.345,0,0,1,1.345-1.345h48.264a1.345,1.345,0,0,1,1.345,1.345h0A1.345,1.345,0,0,1,398.578,221.991Z" transform="translate(-90.843 -77.222)"/><path class="d" d="M398.578,208.489H350.315a1.345,1.345,0,0,1-1.345-1.345h0a1.345,1.345,0,0,1,1.345-1.345h48.264a1.345,1.345,0,0,1,1.345,1.345h0A1.345,1.345,0,0,1,398.578,208.489Z" transform="translate(-90.843 -75.066)"/><path class="d" d="M398.578,235.491H350.315a1.345,1.345,0,0,1-1.345-1.345h0a1.345,1.345,0,0,1,1.345-1.336h48.264a1.345,1.345,0,0,1,1.345,1.336h0A1.345,1.345,0,0,1,398.578,235.491Z" transform="translate(-90.843 -79.376)"/><path class="d" d="M575.165,221.991H526.876a1.336,1.336,0,0,1-1.336-1.336h0a1.336,1.336,0,0,1,1.336-1.345h48.289a1.336,1.336,0,0,1,1.344,1.345h0a1.336,1.336,0,0,1-1.344,1.336Z" transform="translate(-119.025 -77.222)"/><path class="d" d="M575.165,208.489H526.876a1.345,1.345,0,0,1-1.336-1.345h0a1.345,1.345,0,0,1,1.336-1.345h48.289a1.345,1.345,0,0,1,1.344,1.345h0A1.345,1.345,0,0,1,575.165,208.489Z" transform="translate(-119.025 -75.066)"/><path class="d" d="M575.165,235.491H526.876a1.345,1.345,0,0,1-1.336-1.345h0a1.336,1.336,0,0,1,1.336-1.336h48.289a1.336,1.336,0,0,1,1.344,1.336h0A1.345,1.345,0,0,1,575.165,235.491Z" transform="translate(-119.025 -79.376)"/><path class="k" d="M332.17,271.5H552.429v18.068a1.143,1.143,0,0,1-1.143,1.143H333.313a1.143,1.143,0,0,1-1.143-1.143Z" transform="translate(-88.162 -85.552)"/><path class="i" d="M568.244,279.406v-1.681h2.034V276.28h-2.765a.723.723,0,0,0-.723.723v2.4Z" transform="translate(-125.609 -86.315)"/><path class="i" d="M568.244,283.41H566.79v2.479a.731.731,0,0,0,.723.723h2.765v-1.446h-2.034Z" transform="translate(-125.609 -87.453)"/><path class="i" d="M575.635,279.416h1.454v-2.353a.723.723,0,0,0-.723-.723H573.71v1.4h1.924Z" transform="translate(-126.713 -86.324)"/><path class="i" d="M575.635,283.41v1.756H573.71v1.446h2.656a.731.731,0,0,0,.723-.723V283.41Z" transform="translate(-126.713 -87.453)"/><path class="i" d="M347.44,281.262V276.69l3.958,2.286,3.967,2.286-3.967,2.294-3.958,2.286Z" transform="translate(-90.599 -86.38)"/><rect class="i" width="2.454" height="8.328" rx="0.84" transform="translate(277.053 190.772)"/><rect class="i" width="2.454" height="8.328" rx="0.84" transform="translate(282.187 190.772)"/><rect class="d" width="220.259" height="3.614" transform="translate(244.008 182.335)"/><rect class="l" width="113.016" height="3.614" transform="translate(244.008 182.335)"/><path class="k" d="M552.35,250.49h2.521v5.471h3.362v1.933h-5.816Z" transform="translate(-123.304 -82.198)"/><path class="k" d="M560.08,250.49H562.6v7.37H560.08Z" transform="translate(-124.538 -82.198)"/><path class="k" d="M572.183,250.49l-3.109,7.37h-2.445l-3.118-7.37h2.672l1.765,4.3,1.8-4.3Z" transform="translate(-125.085 -82.198)"/><path class="k" d="M580.247,255.956v1.874H574.12v-7.37h5.992v1.874H576.54v.84h3.118v1.79H576.54v.992Z" transform="translate(-126.779 -82.194)"/><path class="l" d="M546.328,254.224a3.034,3.034,0,1,1-3.025-3.034A3.034,3.034,0,0,1,546.328,254.224Z" transform="translate(-121.374 -82.31)"/><path class="k" d="M362.705,256.051c0,1.681-1.6,2.773-3.883,2.773s-3.883-1.092-3.883-2.773a2.261,2.261,0,0,1,1.16-1.992,2.109,2.109,0,0,1-.84-1.681c0-1.572,1.471-2.588,3.572-2.588s3.58,1.017,3.58,2.588a2.118,2.118,0,0,1-.84,1.681A2.261,2.261,0,0,1,362.705,256.051Zm-2.933-.1a.95.95,0,1,0-.95.908.84.84,0,0,0,.95-.908Zm-1.639-3.462a.7.7,0,1,0,.323-.667A.7.7,0,0,0,358.133,252.488Z" transform="translate(-91.796 -82.087)"/><path class="k" d="M364.83,254.29c0-2.866,1.63-4.53,3.925-4.53s3.916,1.681,3.916,4.53-1.63,4.53-3.916,4.53S364.83,257.164,364.83,254.29Zm4.908,0c0-1.681-.42-2.193-.983-2.193s-.992.521-.992,2.193.42,2.193.992,2.193.983-.521.983-2.193Z" transform="translate(-93.375 -82.082)"/><path class="l" d="M347.888,251.754a2.656,2.656,0,1,1-.778-1.886A2.664,2.664,0,0,1,347.888,251.754Z" transform="translate(-89.82 -81.975)"/><path class="l" d="M349.76,259.669h-9.95a5.152,5.152,0,0,1,4.9-3.16h.151a5.143,5.143,0,0,1,4.9,3.16Z" transform="translate(-89.381 -83.159)"/><g class="o" transform="translate(251.345 18.651)"><path class="p" d="M377.5,177.57s-1.328,8.127-7.311,9.58c-4.824,1.168-9.379-3.471-10.925-5.294-.378-.437-.58-.714-.58-.714a7.557,7.557,0,0,1-.9,0c-1.261,0-3.5-.277-4.37-1.824-1.252-2.21,3.294-3.715,3.294-3.715s-2.328-2.084-1.748-3.6,3.7-1.8,3.7-1.8-3.362-2.185-2.236-4.084c1.681-2.866,5.177.286,5.454.454-.219-.252-4.58-4.765-2.193-5.572,2.084-.706,5.5,1.63,7.757,3.958.361.361.563.58.563.58l.37-.261c1.126-.756,4.589-2.773,6.79-.933C377.807,166.611,377.5,177.57,377.5,177.57Z" transform="translate(-342.863 -86.547)"/><path class="q" d="M373.754,184.734a.513.513,0,0,1-.479,0,.487.487,0,0,1-.126-.664,4.244,4.244,0,0,0,.723-3.555c-.79-3.034-4.857-5.143-4.9-5.16a.479.479,0,0,1,.437-.84c.185.092,4.488,2.328,5.378,5.773a5.16,5.16,0,0,1-.84,4.32A.58.58,0,0,1,373.754,184.734Z" transform="translate(-345.349 -88.719)"/><path class="q" d="M367.985,172.335a1.471,1.471,0,0,1-.672,1.294,1.53,1.53,0,0,1-.311.151,3.008,3.008,0,0,1-.84.193,4.053,4.053,0,0,1,.605.5,1.682,1.682,0,0,1,.37.563,1.235,1.235,0,0,1-.21,1.193c-.765,1.008-2.521,1.429-3.958,1.6a5.042,5.042,0,0,1,2.219,2.244,1.488,1.488,0,0,1-.185,1.445,2.85,2.85,0,0,1-1.034.756,15.63,15.63,0,0,1-3.849,1.067c-.378-.437-.58-.714-.58-.714a7.556,7.556,0,0,1-.9,0,.42.42,0,0,1,.244-.1c1.756-.21,4.765-.84,5.362-1.605a.546.546,0,0,0,.042-.563c-.319-.908-2.025-2.109-3.5-2.471a.479.479,0,0,1-.361-.521.471.471,0,0,1,.479-.412c1.177,0,4.4-.176,5.261-1.328.126-.168.092-.252.076-.3a1.6,1.6,0,0,0-.723-.656,11.639,11.639,0,0,0-2.807-1.059.471.471,0,0,1-.244-.143.477.477,0,0,1,.471-.782c.16.042.5.126.924.261a10.647,10.647,0,0,0,2.143.076,1.857,1.857,0,0,0,.84-.219.538.538,0,0,0,.235-.5,2.958,2.958,0,0,0-.571-1.429.471.471,0,0,1,.042-.538h0a.462.462,0,0,1,.765.05A4,4,0,0,1,367.985,172.335Z" transform="translate(-343.731 -88.026)"/><path class="k" d="M364.429,155.331a12.893,12.893,0,0,1,2.219,1.63c.681.647,1.1.966,1.563,1.4h0l-9.118-38.709a.471.471,0,0,0-.924.185Z" transform="translate(-343.655 -79.906)"/><path class="k" d="M373.911,185.465c-3.168,2.034-4.051.529-4.051.529l-1.605-9.093a1.4,1.4,0,0,0,.345-1.353,1.68,1.68,0,0,0-.37-.563,3.494,3.494,0,0,0-.37-.319v-.2a2.689,2.689,0,0,0,.647-.168,1.526,1.526,0,0,0,.311-.151,1.462,1.462,0,0,0,.588-.765,2.379,2.379,0,0,0,1.42.63,2.8,2.8,0,0,0,.462,0Z" transform="translate(-345.203 -88.542)"/><path class="q" d="M376.765,170.058a16.018,16.018,0,0,1-3.118,2.084,5.345,5.345,0,0,1-2.748.664,2.361,2.361,0,0,1-1.681-.975c-1.5-2.017-.219-4.656.681-6.051.361.361.563.58.563.58l.37-.261c-.773,1.151-2.076,3.53-.84,5.168a1.42,1.42,0,0,0,1.059.588c1.681.176,4.278-1.756,5.135-2.521a.471.471,0,0,1,.672,0,.487.487,0,0,1-.092.723Z" transform="translate(-345.309 -87.329)"/><path class="r" d="M425.394,159.69h0v.168l-.059.277-.126.613c-.042.21-.092.429-.143.647s-.092.437-.143.655c-.2.882-.429,1.782-.664,2.681-.5,1.8-1.017,3.605-1.622,5.387s-1.244,3.538-1.967,5.269c-.361.84-.723,1.723-1.118,2.563s-.782,1.681-1.177,2.521c-.84,1.681-1.681,3.278-2.647,4.849-.218.4-.471.782-.706,1.177s-.471.782-.731,1.16c-.5.748-.992,1.521-1.521,2.252-1.025,1.488-2.16,2.883-3.286,4.278a44.62,44.62,0,0,1-3.631,3.916l-1,.924-.983.891-.487.445-.126.109.059-.059.092-.067a2.192,2.192,0,0,1,.361-.261,5.974,5.974,0,0,1,1.773-.84,2.351,2.351,0,0,0,.42-.1h1.6c.134.05-.134,0-.546-.176a15.6,15.6,0,0,1-1.588-.84c-.605-.361-1.261-.8-1.933-1.277a51.06,51.06,0,0,1-4.2-3.362c-1.429-1.261-2.841-2.521-4.261-3.891s-2.841-2.765-4.244-4.2-2.8-2.9-4.2-4.4c-.7-.74-1.387-1.479-2.059-2.235l-1.983-2.168L367.23,188.087l.5.773.487.714.966,1.4c.656.924,1.311,1.84,1.975,2.748,1.345,1.807,2.723,3.6,4.16,5.362s2.916,3.5,4.462,5.219c.782.84,1.572,1.681,2.387,2.563s1.681,1.681,2.521,2.521a70.586,70.586,0,0,0,5.639,4.925c1.034.8,2.126,1.6,3.362,2.378a34.339,34.339,0,0,0,4.034,2.269,24.605,24.605,0,0,0,5.513,1.882l.412.084.454.076.908.126c.319,0,.656.059.983.076h2.109a10.876,10.876,0,0,0,1.151-.109l.571-.084.605-.118c.4-.084.8-.168,1.2-.286a16.515,16.515,0,0,0,4.664-2.177c.336-.235.672-.487,1-.74l.244-.2.218-.176.176-.16.706-.622,1.4-1.261c.454-.42.9-.84,1.345-1.3a74.77,74.77,0,0,0,5.1-5.488c1.571-1.916,3.093-3.883,4.479-5.925s2.681-4.135,3.891-6.261l.84-1.605c.286-.538.555-1.084.84-1.63s.555-1.084.84-1.681l.773-1.681a89.813,89.813,0,0,0,4.857-13.6c.622-2.319,1.168-4.656,1.6-7.034.21-1.193.412-2.4.571-3.614.042-.311.076-.613.109-.924s.076-.622.109-.95.067-.639.092-.966l.092-1.168Z" transform="translate(-345.103 -86.357)"/><path class="s" d="M379.229,190.458a1.3,1.3,0,0,0,1.42,1.2,1.319,1.319,0,1,0-1.42-1.2Z" transform="translate(-347.017 -91.039)"/><path class="s" d="M411.792,215.694a.571.571,0,0,0,.546-.429,42.341,42.341,0,0,0,.916-9.782.563.563,0,0,0-1.126,0,42.129,42.129,0,0,1-.891,9.471.571.571,0,0,0,.412.689Z" transform="translate(-352.124 -93.576)"/><path class="s" d="M415.567,211.743a.555.555,0,0,0,.252-.059.563.563,0,0,0,.252-.756,44.947,44.947,0,0,0-2.765-4.883.563.563,0,1,0-.882.7,46.924,46.924,0,0,1,2.639,4.689A.555.555,0,0,0,415.567,211.743Z" transform="translate(-352.293 -93.718)"/><path class="s" d="M374.288,201.151a.546.546,0,0,0,.4-.168c4.723-4.874,15.388-12.564,15.488-12.606a.555.555,0,0,0,.135-.782.571.571,0,0,0-.79-.134c-.109.084-10.85,7.832-15.64,12.782a.563.563,0,0,0,0,.84A.58.58,0,0,0,374.288,201.151Z" transform="translate(-346.134 -90.773)"/><path class="s" d="M378.64,197.306a.555.555,0,0,0,.361-.134.563.563,0,0,0,.067-.79l-5.7-6.841a.563.563,0,0,0-.8-.076.571.571,0,0,0-.067.8l5.7,6.841a.58.58,0,0,0,.437.2Z" transform="translate(-345.923 -91.089)"/><path class="k" d="M447.593,346.061l7.648-45.112.622-3.689-22-7.765-1.252-.445-5.185-1.849s-.42,1.924-1.067,5.244c-.084.4-.16.84-.252,1.261-2.059,10.673-5.933,32.666-6.984,52.357Z" transform="translate(-353.384 -106.709)"/><path class="j" d="M448.16,348.413c3.311-17.993,7.564-44.28,7.807-45.81a.6.6,0,0,0-1.177-.193c-.059.378-4.471,27.674-7.841,46Z" transform="translate(-357.826 -109.06)"/><path class="k" d="M493.683,267.744s1.681,15.715-1.916,24.464-49.852,4.244-61.643-3.63c-4.841-3.227,5.463-33.027,5.463-33.027Z" transform="translate(-354.934 -101.657)"/><path class="j" d="M427.4,291.547a14,14,0,0,0,2.042-.529,13.72,13.72,0,0,0,3.042-1.471,16.337,16.337,0,0,0,2.723-2.219c5.1-5.152,6.605-12.925,6.673-13.312a.6.6,0,0,0-1.168-.219c0,.092-1.58,8.185-6.723,13.085a14.1,14.1,0,0,1-2.118,1.681,12.816,12.816,0,0,1-2.908,1.387,13.151,13.151,0,0,1-1.286.345A7.59,7.59,0,0,0,427.4,291.547Z" transform="translate(-354.706 -104.5)"/><path class="j" d="M461.37,294.265a.58.58,0,0,0,.563.605h0a.588.588,0,0,0,.622-.546c.109-2.143.235-4.345.37-6.547l.076-1.16c.471-7.177,1.059-14.228,1.5-19.2,0-.4.076-.79.109-1.168.1-1.092.193-2.059.269-2.883l-1.177-.193c-.076.84-.168,1.8-.269,2.908,0,.37-.067.765-.109,1.168-.437,4.933-1.034,11.917-1.5,19.052l-.076,1.185C461.614,289.76,461.479,292.046,461.37,294.265Z" transform="translate(-360.128 -102.873)"/><path class="j" d="M459.285,286.828a16.431,16.431,0,0,0,2.076.79,9.907,9.907,0,0,0,1.168.294,8.393,8.393,0,0,0,1.126.151,4.083,4.083,0,0,0,1.992-.311A2.42,2.42,0,0,0,467,285.938c.429-2.219,1.336-11.362,1.95-17.833,0-.395.076-.79.109-1.16.1-1.042.185-1.983.261-2.782l-1.185-.143c-.076.84-.16,1.756-.26,2.807,0,.37-.076.756-.109,1.16-.613,6.454-1.513,15.589-1.933,17.732a1.261,1.261,0,0,1-.714,1,4.136,4.136,0,0,1-2.521,0,10.387,10.387,0,0,1-1.168-.319,12.484,12.484,0,0,1-1.63-.639.614.614,0,0,0-.84.26.571.571,0,0,0,.328.807Z" transform="translate(-359.732 -103.009)"/><path class="k" d="M493.739,345.238c1.832-16.749,3.95-39.154,5.143-52.1,0-.412.076-.84.109-1.193.529-5.723.84-9.337.84-9.337-2.832-1.177-7.984-.37-13.446,1.185-.395.118-.84.227-1.193.353a163.608,163.608,0,0,0-20.052,7.832v53.289Z" transform="translate(-360.73 -105.885)"/><path class="j" d="M495.613,348.409c1.58-18.615,3.454-45.507,3.479-45.86a.588.588,0,0,0-.546-.639.605.605,0,0,0-.639.555c0,.353-1.908,27.346-3.488,45.944Z" transform="translate(-365.403 -109.056)"/><path class="j" d="M485.075,273.957a31.231,31.231,0,0,0,3.294,8.749,19.2,19.2,0,0,0,6.11,6.782,13.934,13.934,0,0,0,7.564,2.219c0-.412.076-.84.109-1.193a12.765,12.765,0,0,1-7.051-2.025,17.722,17.722,0,0,1-5.563-6.126,30.258,30.258,0,0,1-3.3-8.614.6.6,0,1,0-1.176.21Z" transform="translate(-363.907 -104.483)"/><path class="r" d="M428.45,248.337c12.808,11.959,43.1,18.32,66.45,6.95,2.563-7,5.379-31.985,6.135-39.448.151-1.487.269-2.975.37-4.462a196.614,196.614,0,0,0,0-21.926,8.578,8.578,0,0,0-.059-1.235c-.3-6.211-.765-12.656-1.193-19.489-.84-13.53-5.37-21.85-13.219-23.119a32.3,32.3,0,0,1-8.664-2.614l-.74-.37a24.3,24.3,0,0,1-3.967-2.454h-17.48a13.287,13.287,0,0,1-5.446,4.555l-.714.345c-6.211,2.689-13.446,2.151-14.951,9.648-.941,4.706,2.664,14.379,2.286,34,0,1.445-.076,2.933-.151,4.479s-.16,2.95-.277,4.5-.235,2.925-.387,4.454c-.134,1.336-.286,2.714-.454,4.126s-.37,2.925-.588,4.437C434.257,218.848,431.131,237.849,428.45,248.337Z" transform="translate(-354.874 -83.242)"/><path class="s" d="M499.741,259.8H499.6a.521.521,0,0,1-.361-.639c9.715-35.649,7.757-71.887,7.732-72.274a.538.538,0,0,1,.5-.555.521.521,0,0,1,.555.5c0,.361,1.992,36.767-7.774,72.576A.529.529,0,0,1,499.741,259.8Z" transform="translate(-366.169 -90.609)"/><path class="s" d="M436.963,212.556a.563.563,0,0,0,.555-.5c1.168-10.312,1.177-30.826,1.177-31.027a.563.563,0,1,0-1.126,0c0,.2,0,20.648-1.168,30.9a.563.563,0,0,0,.5.622Z" transform="translate(-356.142 -89.674)"/><path class="s" d="M465.6,264.588a1.319,1.319,0,1,0,1.2-1.429A1.319,1.319,0,0,0,465.6,264.588Z" transform="translate(-360.802 -102.871)"/><path class="s" d="M465.349,272.179a1.319,1.319,0,1,0,1.2-1.42A1.319,1.319,0,0,0,465.349,272.179Z" transform="translate(-360.762 -104.084)"/><path class="s" d="M446.549,186.272c-3.437-3.992-2.143-12.875-2.093-13.253a.563.563,0,0,1,.563-.479h11.656a.563.563,0,0,1,.555.479c.059.378,1.345,9.244-2.092,13.253a5.773,5.773,0,0,1-8.589,0Zm-1.034-12.606c-.219,1.882-.79,8.757,1.891,11.875a4.664,4.664,0,0,0,6.874,0c2.681-3.109,2.109-9.992,1.9-11.875Z" transform="translate(-357.384 -88.408)"/><path class="k" d="M477.53,86.839C474.27,84.722,464,83.663,464,83.663s-1.681-4.437-3.6-5.706c-4.328-2.891-4.866,2.958-4.866,2.958s-4.2-5.883-8.034-4.2,1.059,7.185,1.059,7.185-5.715-1.059-5.042,3.807,6.126,6.984,6.126,6.984a10.656,10.656,0,0,0-.84,7.185c.84,4.446,2.748,4.656,2.748,4.656l23.682,2.118s4.866,0,6.135-6.135-2.958-8.673-2.958-8.673S481.161,89.159,477.53,86.839Z" transform="translate(-357.27 -73.065)"/><path class="p" d="M461,134.546V139a14.062,14.062,0,0,0,1.572,1.1c7.732,4.639,16.06-1.1,16.06-1.1V123.57l-15.53,9.665Z" transform="translate(-360.069 -80.592)"/><path class="k" d="M461,135.754v4.58a14.052,14.052,0,0,0,1.572,1.1c6.58-2.605,11.371-9.5,11.371-9.5L463.1,134.569Z" transform="translate(-360.069 -81.927)"/><path class="r" d="M480.066,136.55a8.791,8.791,0,0,1,6.622,6.816c-5.042,5.3-9.538,9.9-16.808,11.244V143.962a18.808,18.808,0,0,0,10.185-7.412Z" transform="translate(-361.486 -82.664)"/><path class="r" d="M459.6,138.38s-4.647.992-6.454,6.933c4.681,5.7,7.185,7.841,14.043,9.589V144.254S463.369,144.2,459.6,138.38Z" transform="translate(-358.816 -82.956)"/><path class="k" d="M457.71,224.8l3.009,7.269h0l1.353,3.261,3.824,9.228,1.84-3.563.655-1.261,1.479-2.857.647-1.261,1.487-2.857.647-1.261,1.479-2.857h0l.656-1.261,1.4-2.681-.034-.294-.218-2.126-.487-4.832-.219-2.135-.5-4.824-.21-2.135-.5-4.824-.218-2.126-.487-4.832-.218-2.135-.487-4.824-.218-2.135-.5-4.824-.219-2.135-.487-4.824-.219-2.135-.487-4.832-.218-2.126-.5-4.992-3.7-.143-.1.832-.227,1.689-.5,3.832L465,169.513l-.5,3.832-.218,1.689-.5,3.832-.227,1.689-.5,3.832-.227,1.689-.5,3.832L462.1,191.6l-.513,3.832-.219,1.689-.5,3.832-.227,1.689-.5,3.832-.227,1.689-.5,3.832-.219,1.7-.5,3.824-.227,1.7-.5,3.832-.227,1.689Z" transform="translate(-359.544 -86.641)"/><path class="j" d="M467.26,164.149l4.748,4.74-.219-2.126-4.3-4.3Z" transform="translate(-361.068 -86.799)"/><path class="j" d="M466.39,170.719l6.185,6.185-.219-2.135-5.74-5.74Z" transform="translate(-360.929 -87.848)"/><path class="j" d="M465.53,177.289l7.614,7.622-.219-2.135-7.177-7.177Z" transform="translate(-360.792 -88.897)"/><path class="j" d="M464.66,183.859l9.059,9.059-.219-2.135-8.614-8.614Z" transform="translate(-360.653 -89.945)"/><path class="j" d="M463.79,190.429l10.5,10.5-.219-2.135L464.017,188.74Z" transform="translate(-360.514 -90.994)"/><path class="j" d="M462.93,197l11.925,11.934-.218-2.126-11.488-11.5Z" transform="translate(-360.377 -92.042)"/><path class="j" d="M462.06,203.569l13.362,13.371-.21-2.135L462.278,201.88Z" transform="translate(-360.238 -93.091)"/><path class="j" d="M461.19,210.139,476,224.947l-.219-2.135L461.417,208.45Z" transform="translate(-360.099 -94.14)"/><path class="j" d="M460.32,216.709l16.245,16.245-.219-2.126-15.8-15.808Z" transform="translate(-359.96 -95.188)"/><path class="j" d="M459.46,223.288l14.951,14.951.655-1.261L459.679,221.59Z" transform="translate(-359.823 -96.237)"/><path class="j" d="M458.59,229.858,472.146,243.4l.647-1.261L458.817,228.16Z" transform="translate(-359.684 -97.286)"/><path class="j" d="M457.72,236.429l12.152,12.144.647-1.261L457.947,234.74Z" transform="translate(-359.545 -98.336)"/><path class="j" d="M461.29,245.48l1.353,3.261,5.664,5.664.655-1.261Z" transform="translate(-360.115 -100.05)"/><path class="j" d="M471.287,161.613l-1.841,2.731L467.6,161.47l-.328,2.454,2.151,2.185,2.059-2.6Z" transform="translate(-361.07 -86.641)"/><path class="k" d="M473.889,155.028l-4.925,7.311-4.715-7.311,4.715-6.118Z" transform="translate(-360.588 -84.637)"/><path class="s" d="M474.876,159.243a.555.555,0,0,0,.353-.126c4.866-3.883,9.017-13.925,9.194-14.346a.571.571,0,0,0-.311-.74.563.563,0,0,0-.731.311c-.042.1-3.95,9.555-8.4,13.514l-7.4-10.085a.572.572,0,0,0-.462-.235.563.563,0,0,0-.454.244l-6.917,9.816c-1.059-1.908-3.832-6.967-6.16-11.665a.571.571,0,0,0-1.017.5c2.95,5.883,6.589,12.429,6.631,12.5a.555.555,0,0,0,.462.286.572.572,0,0,0,.488-.235l6.984-9.917,7.3,9.925a.563.563,0,0,0,.378.218Z" transform="translate(-358.717 -83.852)"/><path class="s" d="M469.772,148.909a.563.563,0,0,0,.563-.563v-2.521a.571.571,0,0,0-1.134,0v2.521a.563.563,0,0,0,.572.563Z" transform="translate(-361.378 -84.064)"/><path class="q" d="M453.534,112.917s-2.521-2.992-3.958,0-.328,9.026,3.521,8.034Z" transform="translate(-358.149 -78.68)"/><path class="p" d="M451.19,120.324s0,9.194,9.564,9.177,15.967-7.488,16.32-7.832h0l.1-1.933.538-10.034.294-5.37s1.227-9.664-7.95-11.429c-6.723-1.286-12.993-.168-16.169,3.362-.1.109-.2.227-.294.345a8.253,8.253,0,0,0-1.807,4.5l-.294,9.631-.076,2.361Z" transform="translate(-358.503 -75.615)"/><path class="k" d="M464.158,105.477s4.009,2.992,6.4,1.084-3.177-3.983-5.042-3.832S462.964,104.771,464.158,105.477Z" transform="translate(-360.478 -77.265)"/><path class="k" d="M457.743,105.477s-4.017,2.992-6.4,1.084,3.177-3.983,5.042-3.832S458.936,104.771,457.743,105.477Z" transform="translate(-358.433 -77.265)"/><path class="q" d="M462.573,126.759a3.991,3.991,0,0,0,2.74-.84.423.423,0,0,0-.555-.639,2.941,2.941,0,0,1-2.941.454.423.423,0,1,0-.345.773,3.647,3.647,0,0,0,1.1.252Z" transform="translate(-360.104 -80.849)"/><path class="i" d="M466.1,119.24s-5.841,1.177-8.791.908c0,0,1.1,4.345,5.446,3.252A4.362,4.362,0,0,0,466.1,119.24Z" transform="translate(-359.48 -79.901)"/><path class="k" d="M454.05,96.575c1.5-.529,2.588,0,4.925.992,3.362,1.488,7.16.151,10.5-1.555s5.345.664,4.2,2.227-1.009,2.824.252,4.807-2.387,2.916-.37,4.471a2.067,2.067,0,0,1,.454,2.521,1.378,1.378,0,0,0,1.546,1.824h0c1.093-.277,2.622-2.2,2.622-2.2l.294-5.37s1.21-9.622-7.967-11.387c-6.723-1.286-12.992-.168-16.169,3.362A1.749,1.749,0,0,0,454.05,96.575Z" transform="translate(-358.959 -75.615)"/><path class="q" d="M466.4,115.37c0,.672,1.378,1.21,3.076,1.21s3.084-.538,3.084-1.21-1.378-1.21-3.084-1.21S466.4,114.7,466.4,115.37Z" transform="translate(-360.931 -79.09)"/><path class="q" d="M451.46,116.54a7.054,7.054,0,0,0,.74,0c1.681,0,3.084-.538,3.084-1.21s-1.378-1.21-3.084-1.21h-.664Z" transform="translate(-358.546 -79.084)"/><path class="k" d="M464.81,110.891c0,.924.42,1.681.933,1.681s.933-.74.933-1.681-.42-1.681-.933-1.681S464.81,109.975,464.81,110.891Z" transform="translate(-360.677 -78.3)"/><path class="k" d="M453.81,110.891c0,.924.42,1.681.933,1.681s.933-.74.933-1.681-.42-1.681-.933-1.681S453.81,109.975,453.81,110.891Z" transform="translate(-358.921 -78.3)"/><path class="k" d="M478.43,122.79c.042.1,1.252,2.908,2.992,3.731h0l.109-1.933a6.631,6.631,0,0,1-3.1-1.8Z" transform="translate(-362.851 -80.468)"/><path class="p" d="M480.43,114.7s3.681-4.942,6.379-1.059c2.219,3.2-1.983,11.539-6.379,8.681Z" transform="translate(-363.17 -78.769)"/><path class="k" d="M480.928,121.31a.378.378,0,0,0,.378-.336,6.311,6.311,0,0,1,3.673-5.093.387.387,0,0,0,.21-.5.378.378,0,0,0-.488-.21,7.076,7.076,0,0,0-4.151,5.715.4.4,0,0,0,.336.42Z" transform="translate(-363.189 -79.248)"/><path class="k" d="M484.72,119.442a.353.353,0,0,0,.294-.134.387.387,0,0,0-.051-.538c-.151-.118-1.513-1.185-2.647-.9a.378.378,0,0,0-.269.462.37.37,0,0,0,.462.269c.647-.168,1.681.5,1.975.756A.369.369,0,0,0,484.72,119.442Z" transform="translate(-363.426 -79.675)"/><path class="k" d="M460.677,115.081a.378.378,0,0,0,0-.756,2.6,2.6,0,0,1-2.261-1.05c1.5-3.109,3.009-6.253,3.025-6.278a.386.386,0,0,0-.176-.5.37.37,0,0,0-.5.176s-1.58,3.286-3.118,6.454a.378.378,0,0,0,0,.328A3.244,3.244,0,0,0,460.677,115.081Z" transform="translate(-359.527 -77.86)"/><path class="p" d="M569.23,152s5.093,5.143,10.085,3.143c4.059-1.622,4.958-7.269,5.16-9.387.042-.5.05-.84.05-.84a5.87,5.87,0,0,0,.656-.437c.9-.655,2.37-1.975,2.21-3.538-.227-2.219-4.261-.983-4.261-.983s.613-2.681-.58-3.462-3.572.6-3.572.6,1.3-3.286-.479-4.076c-2.681-1.193-3.563,2.84-3.681,3.109,0-.294,1.311-12.673-.84-12.034-1.857.555-3.572,10.925-4,13.715-.067.445-.1.7-.1.7h-.4c-1.193.042-4.7.353-5.345,2.8C563.423,144.29,569.23,152,569.23,152Z" transform="translate(-376.519 -80.672)"/><path class="q" d="M581.758,146.162a4.461,4.461,0,0,0-.437,2.748,1.294,1.294,0,0,0,.84.941,2.522,2.522,0,0,0,1.126,0,13.39,13.39,0,0,0,3.3-1.2c.051-.5.059-.84.059-.84a5.888,5.888,0,0,0,.656-.437.454.454,0,0,0-.227.059c-1.361.748-3.832,1.84-4.664,1.572a.5.5,0,0,1-.319-.37,5.032,5.032,0,0,1,1.261-3.563.42.42,0,0,0-.563-.613c-.84.613-3.244,2.118-4.446,1.74-.176-.059-.2-.143-.21-.185a1.411,1.411,0,0,1,.176-.84,10.53,10.53,0,0,1,1.479-2.185.419.419,0,0,0,.1-.235.412.412,0,0,0-.134-.353.429.429,0,0,0-.6,0,11.865,11.865,0,0,0-1.5,2.177,3.638,3.638,0,0,0-.353,1.042,1.37,1.37,0,0,0,0,.588,1.067,1.067,0,0,0,.756.748C579.178,147.372,580.649,146.775,581.758,146.162Z" transform="translate(-378.627 -83.578)"/><path class="q" d="M574.9,142.68a.412.412,0,0,1,.3.361,2.722,2.722,0,0,0,.361,1.294.471.471,0,0,0,.429.235,1.478,1.478,0,0,0,.689-.252,11.882,11.882,0,0,0,2.236-1.849.4.4,0,0,1-.1.227,10.359,10.359,0,0,0-1.479,2.193l-.244.151a3.166,3.166,0,0,1-.765.319,1.272,1.272,0,0,1-.294.05,1.294,1.294,0,0,1-1.143-.588,3.563,3.563,0,0,1-.529-1.723.4.4,0,0,1,.521-.42Z" transform="translate(-378.161 -83.609)"/><path class="q" d="M567.82,147.04a13.74,13.74,0,0,0,3.3-.092,4.656,4.656,0,0,0,2.3-.924,2.092,2.092,0,0,0,.74-1.572c.051-2.219-2.219-3.454-3.58-3.992-.067.445-.1.7-.1.7h-.4c1.143.429,3.286,1.479,3.252,3.269a1.277,1.277,0,0,1-.454.966c-1.118.983-3.967.924-4.967.84a.406.406,0,1,0-.092.807Z" transform="translate(-377.059 -83.288)"/><path class="q" d="M577.912,155.919a.4.4,0,0,0,.319-.269.42.42,0,0,0-.244-.538,3.756,3.756,0,0,1-2.328-2.177c-.983-2.588.84-6.168.84-6.2a.4.4,0,0,0-.176-.563.412.412,0,0,0-.563.176c-.084.16-2.034,3.958-.916,6.883a4.529,4.529,0,0,0,2.815,2.664A.4.4,0,0,0,577.912,155.919Z" transform="translate(-378.184 -84.192)"/><path class="r" d="M502.094,150.16l8.715,7.564q2.08,1.954,4.2,3.874c1.412,1.277,2.8,2.521,4.2,3.824s2.8,2.521,4.2,3.748,2.8,2.429,4.2,3.58,2.757,2.277,4.051,3.236c.647.479,1.269.916,1.773,1.244l.336.219.143.084.05.042a.542.542,0,0,1,.1.118c.051.059.042.1.1.151a.723.723,0,0,0,.429.067,6.723,6.723,0,0,0,2.445-.95,21.074,21.074,0,0,0,3.362-2.521,44.55,44.55,0,0,0,3.437-3.454,85.437,85.437,0,0,0,6.5-8.4c2.067-2.983,3.53-5.286,5.4-8.463a13.993,13.993,0,0,0,12.69,4.849,112.96,112.96,0,0,1-4.908,11.328,88.241,88.241,0,0,1-6.454,10.976,58.237,58.237,0,0,1-4.2,5.337,39.5,39.5,0,0,1-5.454,5.093,29.14,29.14,0,0,1-3.555,2.311,23.73,23.73,0,0,1-4.412,1.832,19.917,19.917,0,0,1-5.328.84,19.379,19.379,0,0,1-5.639-.714,20.708,20.708,0,0,1-2.605-.924l-.6-.277-.513-.244-.479-.244-.454-.244c-1.185-.639-2.193-1.252-3.16-1.866-1.916-1.219-3.639-2.429-5.328-3.656s-3.294-2.471-4.883-3.715-3.16-2.521-4.7-3.773-3.067-2.521-4.572-3.841-3-2.605-4.479-3.908-2.941-2.639-4.4-3.975l-2.177-2.017-1.076-1.025-1.1-1.059Z" transform="translate(-364.37 -84.836)"/><path class="s" d="M511.524,190.091a.521.521,0,0,1-.3-.1c-5.748-4.026-15.967-12.505-16.068-12.606a.521.521,0,0,1-.076-.74.529.529,0,0,1,.74-.067c.109.084,10.295,8.538,15.967,12.539a.538.538,0,0,1,.135.731A.555.555,0,0,1,511.524,190.091Z" transform="translate(-365.489 -89.033)"/><path class="s" d="M499.651,181.449h-.076l-4.051-.6a.513.513,0,0,1-.445-.588.53.53,0,0,1,.6-.445l4.051.588a.522.522,0,1,1-.076,1.042Z" transform="translate(-365.507 -89.569)"/><path class="s" d="M577.841,167.165a.521.521,0,0,0,.269-.588.538.538,0,0,0-.63-.412c-7.631,1.681-11.429-5.614-11.463-5.681a.538.538,0,0,0-.723-.235h0a.529.529,0,0,0-.235.714c0,.084,4.2,8.085,12.606,6.253A.842.842,0,0,0,577.841,167.165Z" transform="translate(-376.668 -86.437)"/><path class="s" d="M575.461,167.339a.546.546,0,0,0,.244-.269l2.521-5.883a.538.538,0,1,0-.983-.42l-2.521,5.883a.538.538,0,0,0,.74.689Z" transform="translate(-378.213 -86.468)"/><path class="s" d="M570.24,161.743a.924.924,0,1,0,.395-1.252A.924.924,0,0,0,570.24,161.743Z" transform="translate(-377.488 -86.469)"/><path class="s" d="M541.309,189.7a.529.529,0,0,0,.277-.387,23.445,23.445,0,0,1,1.563-5.328.538.538,0,1,0-.95-.487,23.144,23.144,0,0,0-1.681,5.639.53.53,0,0,0,.437.613A.572.572,0,0,0,541.309,189.7Z" transform="translate(-372.759 -90.1)"/><path class="s" d="M545.068,188.6l.1-.067a.546.546,0,0,0,.067-.756,9.866,9.866,0,0,1-1.866-3.563.532.532,0,0,0-1.042.218,10.823,10.823,0,0,0,2.084,4.034A.546.546,0,0,0,545.068,188.6Z" transform="translate(-373.047 -90.203)"/></g><ellipse class="d" cx="121.723" cy="7.404" rx="121.723" ry="7.404" transform="translate(0 339.64)"/><path class="p" d="M174.085,216.523l12.295,44.961-4.387-5.042a22.783,22.783,0,0,0,5.589,1.992,41.238,41.238,0,0,0,6.723.84c2.37.126,4.841.1,7.37,0s5.11-.294,7.723-.521h0a7.026,7.026,0,0,1,1.681,13.942c-2.706.429-5.454.84-8.278,1.16s-5.706.571-8.706.639a55.048,55.048,0,0,1-9.295-.513,38.332,38.332,0,0,1-9.732-2.706,7.639,7.639,0,0,1-4.2-4.58l-.151-.471-14.808-44.2a9.488,9.488,0,1,1,18-6A2.728,2.728,0,0,1,174.085,216.523Z" transform="translate(-59.951 -75.662)"/><path class="s" d="M170.725,406.755a1.53,1.53,0,0,1-.546-.1L105.8,383.4a1.626,1.626,0,1,1,1.1-3.059l64.383,23.228a1.622,1.622,0,0,1-.555,3.151Z" transform="translate(-51.859 -102.908)"/><path class="s" d="M103.121,406.7a1.622,1.622,0,0,1-.546-3.152l65.173-23.565a1.623,1.623,0,1,1,1.109,3.051l-65.181,23.607a1.614,1.614,0,0,1-.555.059Z" transform="translate(-51.344 -102.85)"/><path class="r" d="M174.876,443.158a2.79,2.79,0,0,1-2.756-2.412l-11.6-86.863H111.779L100.35,440.747a2.782,2.782,0,0,1-5.513-.731L106.6,350.74a2.782,2.782,0,0,1,2.757-2.42h53.55a2.782,2.782,0,0,1,2.756,2.411l11.959,89.276a2.782,2.782,0,0,1-2.387,3.126A2.747,2.747,0,0,1,174.876,443.158Z" transform="translate(-50.279 -97.813)"/><path class="r" d="M145.677,333.429H110.885c-11.018,0-22.817-6.034-24.514-16.917a206.837,206.837,0,0,1-2.177-41.6,50.659,50.659,0,0,1,19.2-37.322h0s6.95,30.254-1.79,72.072C104.943,325.529,145.677,333.429,145.677,333.429Z" transform="translate(-48.544 -80.139)"/><path class="k" d="M142.668,138.738s-4.135-9.967-15.077-8.093c-7.656,1.311-10.925,10.85-10.463,25.565.656,21.422-6.589,34.33-6.589,34.33l9.614,2.185S144.635,156,142.668,138.738Z" transform="translate(-52.788 -63.033)"/><path class="k" d="M234.127,397.413H218.588s-3.588-17.245-4.8-26.893-1.832-32.59-1.832-32.59-12.379,4.025-38.3,2.521c-57.424-3.362-35.65-45.541-35.65-45.541,1.941,2.681,13.824.84,21.943,2.1,24.934,2.4,46.558,12.177,59.533,17.774a65.12,65.12,0,0,1,8.337,4.278c3.126,1.924,5.042,7.774,6.261,15.472C237.631,357.62,234.127,397.413,234.127,397.413Z" transform="translate(-56.526 -89.288)"/><path class="j" d="M221.334,389.23a.546.546,0,0,1-.546-.445c-2.244-11.093-2.992-24.9-3.6-35.994-.5-9.2-.975-17.884-2.16-18.934-.958-.84-4.933-.185-9.959.655-10.009,1.681-25.136,4.2-41.818.286-9.085-2.109-15.757-6.521-19.85-13.118-7.051-11.362-3.832-25.447-3.8-25.59a.546.546,0,0,1,.664-.412.555.555,0,0,1,.42.664c0,.143-3.143,13.8,3.664,24.766,3.925,6.32,10.37,10.564,19.153,12.606,16.463,3.832,31.456,1.345,41.381-.3,5.942-.983,9.53-1.58,10.925-.387s1.874,7.648,2.521,19.707c.605,11.06,1.353,24.817,3.58,35.834a.555.555,0,0,1-.437.656Z" transform="translate(-57.306 -89.408)"/><path class="j" d="M250.115,407.059h0l-17.278-.37a.563.563,0,0,1-.546-.572.546.546,0,0,1,.571-.538l17.279.37a.555.555,0,0,1,0,1.109Z" transform="translate(-72.22 -106.952)"/><path class="p" d="M249.936,436.781H238.969l-2.109-12.858-1.16-7.043h13.623l.219,7.043Z" transform="translate(-72.765 -108.755)"/><path class="r" d="M250.157,438.118H239.189l-1.572-9.572-.538-3.286h12.682l.109,3.4Z" transform="translate(-72.985 -110.093)"/><path class="s" d="M249.871,428.664l-12.253-.118-.538-3.286h12.682Z" transform="translate(-72.985 -110.093)"/><path class="t" d="M276.852,457.312H235.379a5.689,5.689,0,0,1-.546-2.3c-.261-3.5.84-9.11,1.4-12.606.067-.412.126-.79.168-1.143a12.427,12.427,0,0,0,.126-1.445c0-2.874,2.521-2.387,2.521-2.387,4.2,4.118,8.942-2.051,11.724,0l.361.277,1.084.882c.706.588,1.681,1.446,3.042,2.656,3.286,2.967,8.891,4.916,13.656,6.916.605.252,1.168.5,1.681.756l1.126.571c3.891,2.109,5.135,4.118,5.421,5.58a3.227,3.227,0,0,1-.294,2.244Z" transform="translate(-72.62 -111.966)"/><path class="u" d="M274.076,449.549c-1.067.84-3.446,2.521-5.353,2.521h-.252c-1.345-.109-6.286-2.521-10.3-4.748-2.311-1.269-4.412-2.521-5.925-3.513-2.521-1.639-2.916-2.261-3.009-2.7-.37-1.639,2.336-2.782,4.2-3.362l1.084.882c-2.361.639-4.294,1.681-4.2,2.227.235.479,2.689,2.353,8.555,5.563,4.479,2.454,8.732,4.437,9.673,4.513,1.277.1,3.151-1.059,4.378-1.975Z" transform="translate(-74.919 -112.086)"/><path class="u" d="M276.86,460.733H235.386a5.69,5.69,0,0,1-.546-2.3H277.2a3.227,3.227,0,0,1-.345,2.3Z" transform="translate(-72.627 -115.387)"/><path class="u" d="M239.88,458.115h-1.227a9.1,9.1,0,0,0,2.227-6.639,11.7,11.7,0,0,0-4.37-8.3c.067-.412.126-.8.168-1.143a12.732,12.732,0,0,1,5.194,9.4,10.085,10.085,0,0,1-1.992,6.69Z" transform="translate(-72.894 -112.769)"/><path class="i" d="M258.217,444.508a.681.681,0,0,1-.168-1.345l2.6-.647a.684.684,0,0,1,.328,1.328l-2.588.647Z" transform="translate(-76.247 -112.844)"/><path class="i" d="M255.162,441.948a.689.689,0,0,1-.168-1.353l2.588-.639a.684.684,0,0,1,.328,1.328l-2.588.639A.53.53,0,0,1,255.162,441.948Z" transform="translate(-75.763 -112.435)"/><path class="i" d="M261.3,446.3a.681.681,0,0,1-.16-1.345l2.588-.639a.681.681,0,1,1,.328,1.319l-2.588.647a.574.574,0,0,1-.168.017Z" transform="translate(-76.74 -113.129)"/><path class="i" d="M264.384,448.028a.689.689,0,0,1-.16-1.353l2.588-.639a.684.684,0,0,1,.328,1.328l-2.588.639A.539.539,0,0,1,264.384,448.028Z" transform="translate(-77.236 -113.406)"/><path class="i" d="M267.747,449.618a.681.681,0,0,1-.168-1.345l2.588-.647a.685.685,0,1,1,.336,1.328l-2.6.647Z" transform="translate(-77.768 -113.659)"/><path class="i" d="M271.389,450.975a.689.689,0,0,1-.664-.521.681.681,0,0,1,.5-.84l2.588-.647a.684.684,0,0,1,.328,1.328l-2.588.639A.583.583,0,0,1,271.389,450.975Z" transform="translate(-78.351 -113.873)"/><path class="u" d="M104.557,278.1s-.5,3.362,4,4.286l46.793,1.521a5.286,5.286,0,0,0,2.6-5.5S138.181,267.3,104.557,278.1Z" transform="translate(-51.831 -85.852)"/><path class="p" d="M156.11,293.71c-24.3,13.362-50.81,2.605-50.81,2.605a74.488,74.488,0,0,0,2.958-11.169c.84-4.2,1.261-7.95,1.471-9.917,10.328-.563,35.649-1.639,45.575.714l.076,3.975Z" transform="translate(-51.952 -86.029)"/><path class="q" d="M144.043,289.283c-.185,1.252-.748,2.2-1.269,2.126s-.79-1.143-.605-2.4.74-2.21,1.261-2.135S144.219,288.031,144.043,289.283Z" transform="translate(-57.827 -88.006)"/><path class="q" d="M155.941,279.969c-10.337-.63-30.691-.84-47.121,5.227.84-4.2,1.261-7.95,1.471-9.917,10.328-.563,35.65-1.639,45.575.714Z" transform="translate(-52.514 -86.037)"/><path class="t" d="M166.446,248.036a5.427,5.427,0,0,1-.345.84l-.151.294a23.121,23.121,0,0,1-5,5.992c-.353.3-.689.588-1,.84-.63.513-1.151.9-1.521,1.16a6.4,6.4,0,0,1-.529.361v.076a2.292,2.292,0,0,1-.05.571c-.059.765-.109,1.681-.151,2.714,0,.84-.05,1.748-.076,2.731v2.294c-13.732-6.135-42.02-2.269-53.382-.345.21-.992.395-1.95.571-2.891a89.085,89.085,0,0,0,1.437-11.765,124.211,124.211,0,0,0-1.286-21.136l-.227-1.572-.151-1.025c-.395-2.521-.84-5.084-1.361-7.564-2.244-10.774-.664-22.077,10.253-23.413.79-.1,1.572-.185,2.328-.269,5.152-.546,9.387-.731,10.564-.782h.328l21.111,6.126,2,.588c1.16.37,2.227.731,3.21,1.076l1.219.454c1.025.378,1.958.756,2.8,1.126a23.776,23.776,0,0,1,4.084,2.227c4.639,3.294,3.916,7.009,3.8,14.346v1.4c0,.941.042,1.891.1,2.832.076,1.387.2,2.765.353,4.109.059.538.118,1.084.185,1.614s.126,1,.193,1.5C166.547,238.985,167.605,244.607,166.446,248.036Z" transform="translate(-51.48 -73.366)"/><path class="u" d="M175.739,226.15v1.311l-4.446,2.765a.61.61,0,0,1-.647-1.034l4.706-2.95a.655.655,0,0,1,.387-.092Z" transform="translate(-62.337 -78.313)"/><path class="u" d="M141.885,253.494a.614.614,0,0,1-.462-.21.622.622,0,0,1,.042-.84l4.126-3.715a.625.625,0,1,1,.84.924l-4.126,3.715A.647.647,0,0,1,141.885,253.494Z" transform="translate(-57.694 -81.891)"/><path class="u" d="M177.009,239.389l-2.832,2.521a.588.588,0,0,1-.412.16.63.63,0,0,1-.462-.2.613.613,0,0,1,.05-.84l3.462-3.118C176.875,238.4,176.942,238.893,177.009,239.389Z" transform="translate(-62.783 -80.19)"/><path class="u" d="M131.978,236.466a.6.6,0,0,1-.1-.5.622.622,0,0,1,.748-.454l5.4,1.244a.622.622,0,0,1,.462.748.63.63,0,0,1-.748.462l-5.4-1.21A.588.588,0,0,1,131.978,236.466Z" transform="translate(-56.191 -79.806)"/><path class="u" d="M108.933,248.332a.622.622,0,0,1-.412-1.084l4.126-3.714a.622.622,0,0,1,.84.05.613.613,0,0,1-.05.84l-4.126,3.715A.588.588,0,0,1,108.933,248.332Z" transform="translate(-52.433 -81.066)"/><path class="u" d="M166.2,248.137a.664.664,0,0,1,.345-.378.622.622,0,0,1,.84.328l2.219,5.084a.622.622,0,0,1-.319.84.605.605,0,0,1-.84-.319l-2.219-5.093A.605.605,0,0,1,166.2,248.137Z" transform="translate(-61.667 -81.753)"/><path class="u" d="M177.866,257.889a5.426,5.426,0,0,1-.345.84l-.151.294-3.017-.95a.656.656,0,0,1-.37-.252.622.622,0,0,1,.723-.908Z" transform="translate(-62.901 -83.219)"/><path class="u" d="M157.54,258.609a.6.6,0,0,1,.479.16.605.605,0,0,1,.042.84l-3.731,4.11a.6.6,0,0,1-.84,0,.622.622,0,0,1,0-.84l3.731-4.11a.647.647,0,0,1,.319-.16Z" transform="translate(-59.617 -83.494)"/><path class="u" d="M155.634,246.533a.622.622,0,0,1-.42-.277.63.63,0,0,1,.193-.84l4.706-2.95a.622.622,0,1,1,.656,1.051l-4.7,2.95A.63.63,0,0,1,155.634,246.533Z" transform="translate(-59.905 -80.897)"/><path class="u" d="M158.046,225.9a.647.647,0,0,1,.151.479.63.63,0,0,1-.681.555L152,226.325a.621.621,0,1,1,.134-1.235l5.521.605A.638.638,0,0,1,158.046,225.9Z" transform="translate(-59.317 -78.144)"/><path class="u" d="M149.746,211.711a.588.588,0,0,1,.3-.395.622.622,0,0,1,.84.252l2.63,4.891a.63.63,0,0,1-.252.84.622.622,0,0,1-.84-.252l-2.63-4.891A.6.6,0,0,1,149.746,211.711Z" transform="translate(-59.042 -75.934)"/><path class="u" d="M171.743,266.219c-.353.3-.689.588-1,.84l-.731-1.849a.605.605,0,0,1,0-.437.622.622,0,0,1,.353-.361.614.614,0,0,1,.8.345Z" transform="translate(-62.274 -84.413)"/><path class="u" d="M111.665,255.195a.6.6,0,0,1-.042-.5.63.63,0,0,1,.84-.378l5.219,1.882a.622.622,0,1,1-.42,1.168l-5.219-1.883A.58.58,0,0,1,111.665,255.195Z" transform="translate(-52.955 -82.802)"/><path class="u" d="M113.81,263.78a.622.622,0,0,1,.4,1.084l-4.152,3.673a.625.625,0,1,1-.84-.924l4.2-3.681A.639.639,0,0,1,113.81,263.78Z" transform="translate(-52.545 -84.319)"/><path class="u" d="M122.44,270.508a.664.664,0,0,1,.126.487.622.622,0,0,1-.714.5l-5.479-.933a.613.613,0,0,1-.5-.714.622.622,0,0,1,.714-.5l5.479.933A.614.614,0,0,1,122.44,270.508Z" transform="translate(-53.637 -85.207)"/><path class="u" d="M129.135,208.723a.588.588,0,0,1,.076-.5.622.622,0,0,1,.84-.185l4.664,3.009a.622.622,0,0,1-.672,1.042l-4.664-3.009a.613.613,0,0,1-.244-.361Z" transform="translate(-55.752 -75.409)"/><path class="u" d="M166.581,213.08a.622.622,0,0,1,.84.756l-1.857,5.227a.622.622,0,0,1-1.168-.412l1.857-5.236a.664.664,0,0,1,.328-.336Z" transform="translate(-61.381 -76.219)"/><path class="u" d="M163.3,204.915l-2.866,3.673a.617.617,0,0,1-.975-.756l2.622-3.362Z" transform="translate(-60.575 -74.853)"/><path class="u" d="M130.676,265.072a.521.521,0,0,0,.387.336.43.43,0,0,0,.252,0,29.254,29.254,0,0,1,18.531,1,31.709,31.709,0,0,0,12.522,2.681,2.1,2.1,0,0,1,.05-.572v-.076a6.4,6.4,0,0,0,.529-.361,29.994,29.994,0,0,1-12.673-2.647,29.683,29.683,0,0,0-19.228-1,.513.513,0,0,0-.37.639Z" transform="translate(-55.999 -84.241)"/><path class="u" d="M152.32,201.3c-1.177,1.84-3.622,3.916-8.564,3.555-6.816-.5-11.3-7-12.866-9.673h.319Z" transform="translate(-56.036 -73.37)"/><path class="i" d="M145.041,213.268a3.642,3.642,0,0,0,.6.084,5.261,5.261,0,0,0,4.538-1.622c3.278-3.58,1.933-11.765,1.874-12.093a.513.513,0,0,0-.58-.412.5.5,0,0,0-.412.58c0,.084,1.319,8.026-1.622,11.244a4.269,4.269,0,0,1-3.715,1.3c-6.606-.538-14.009-17.312-14.077-17.48a.508.508,0,1,0-.933.4C131.015,195.973,138.04,211.848,145.041,213.268Z" transform="translate(-56.001 -73.272)"/><path class="p" d="M172.239,209a36.8,36.8,0,0,0,3.874,18.581c-.067-1.244-.1-2.521-.092-3.731v-.5C176.147,215.984,176.862,212.261,172.239,209Z" transform="translate(-62.627 -75.576)"/><path class="p" d="M122.211,215.437c-2.42,9.345-11.278,16.808-17.329,14.505l-.227-1.572-.151-1.025c-.395-2.521-.84-5.084-1.361-7.564-2.244-10.774-.664-22.077,10.253-23.413.79-.1,1.572-.185,2.328-.269C121.228,198.436,125.035,204.68,122.211,215.437Z" transform="translate(-51.467 -73.517)"/><path class="p" d="M123.437,209.1l14.194,51.886-5.042-5.832a25.539,25.539,0,0,0,6.446,2.3,46.854,46.854,0,0,0,7.748.992c2.74.143,5.589.118,8.5,0s5.883-.345,8.917-.6h0a8.11,8.11,0,0,1,1.967,16.094c-3.118.5-6.295.966-9.547,1.345s-6.589.656-10.043.74a65.44,65.44,0,0,1-10.74-.6,44.625,44.625,0,0,1-11.261-3.109,8.807,8.807,0,0,1-4.883-5.294l-.176-.538-17.026-51.037a10.943,10.943,0,1,1,20.775-6.883A4.955,4.955,0,0,1,123.437,209.1Z" transform="translate(-51.415 -74.311)"/><path class="q" d="M135,269.855a.423.423,0,0,1-.21-.79,17.763,17.763,0,0,1,6.479-2.076.422.422,0,1,1,.067.84,17.153,17.153,0,0,0-6.126,1.966A.4.4,0,0,1,135,269.855Z" transform="translate(-56.625 -84.832)"/><path class="q" d="M140.278,267.739a.5.5,0,0,1-.219-.059,10.926,10.926,0,0,0-4.353-1.37.42.42,0,0,1-.387-.454.412.412,0,0,1,.445-.387,11.766,11.766,0,0,1,4.731,1.487.42.42,0,0,1-.219.782Z" transform="translate(-56.743 -84.589)"/><path class="u" d="M153.012,233.034c6.278,1.269,9.026-5.227,9.059-5.286a.513.513,0,0,0-.277-.664.5.5,0,0,0-.664.277c-.1.244-2.462,5.782-7.916,4.681-5.723-1.16-16.388-12.421-16.5-12.53a.5.5,0,0,0-.714,0,.513.513,0,0,0,0,.714C136.423,220.68,146.986,231.807,153.012,233.034Z" transform="translate(-56.829 -77.23)"/><path class="k" d="M141.836,179.451s-10.085-1.9-12.925-12.068c-2.706-9.681-.622-14.707,2.193-19.934,2.118-3.941,8.841-9.244,18.262-7.353s16.631,6.816,17.648,14.64C169.014,169.366,157.207,187.233,141.836,179.451Z" transform="translate(-55.519 -64.515)"/><path class="r" d="M129.192,168.853a.538.538,0,0,1-.454-.269,22.8,22.8,0,0,1-.9-17.976,16.413,16.413,0,0,1,9.774-10.32,17.649,17.649,0,0,1,6.6-1.219.529.529,0,0,1-.059,1.05h0a16.808,16.808,0,0,0-6.194,1.16,15.262,15.262,0,0,0-9.127,9.673,22.153,22.153,0,0,0,.84,17.11.538.538,0,0,1-.2.723.572.572,0,0,1-.277.067Z" transform="translate(-55.321 -64.415)"/><path class="q" d="M167.544,174.522s3.277-2.588,4.143.84-1.572,9.53-5.387,7.673Z" transform="translate(-61.688 -69.924)"/><path class="r" d="M163.329,182.181a5.244,5.244,0,0,0-3.437,3.773,4.942,4.942,0,1,0,7.639-3.1,4.815,4.815,0,0,0-1.815-.773h-.05a.84.84,0,0,0,.143.84,4.018,4.018,0,0,1,1.446.714,4.2,4.2,0,1,1-6.606,2.521,4.059,4.059,0,0,1,3.067-3.177Z" transform="translate(-60.649 -71.28)"/><path class="p" d="M152.289,190.683l-1.37,8.58s-6.429,6.563-18.169-5.21c3.151-2.345,4.353-7.782,3.983-11.3a17.022,17.022,0,0,1,2.353,1.849,10.563,10.563,0,0,0,.983.689C143.137,187.4,147.894,190.145,152.289,190.683Z" transform="translate(-56.333 -71.387)"/><path class="k" d="M153.493,191.034l-.656,4.068c-3.521-1.572-9.74-4.925-12.547-10.152l.983.689C144.341,187.749,149.1,190.5,153.493,191.034Z" transform="translate(-57.536 -71.738)"/><path class="p" d="M166.117,168.562c-.185.908-.353,1.773-.529,2.6s-.361,1.731-.529,2.521c-1.3,5.942-2.378,9.127-4.11,10.32-8.765,6.026-23.027-6.177-23.489-6.572h0v-2.076a53.785,53.785,0,0,1,2.656-15.783A12.127,12.127,0,0,1,150.2,149.333c5.429-.84,9.513,2.328,12.068,3.723C166.117,155.149,167.63,160.99,166.117,168.562Z" transform="translate(-57.085 -66.031)"/><path class="k" d="M140.972,153.4s6.135-11.765,18.371-8.5,12.883,8.975,13.1,11.816-6.337-2.193-6.337-2.193-.227,5.689-2.412,3.933c-2.681-2.143-5.673-6.782-5.673-6.782s-7.286,7.169-14.219,5.236C139.846,155.817,140.972,153.4,140.972,153.4Z" transform="translate(-57.622 -65.253)"/><path class="q" d="M158.31,185.641a4.109,4.109,0,0,1-2.731-1.16.437.437,0,0,1,.63-.605,3.017,3.017,0,0,0,2.983.74.442.442,0,1,1,.277.84,3.647,3.647,0,0,1-1.16.185Z" transform="translate(-59.958 -71.546)"/><path class="i" d="M154.5,177.51s5.883,1.748,8.959,1.748c0,0-1.53,4.37-5.883,2.84a4.5,4.5,0,0,1-3.076-4.589Z" transform="translate(-59.802 -70.55)"/><path class="k" d="M167.281,162.889s-1.538-.151-1.286,1.328,3.572.58,5.219,3.555C171.214,167.772,172.8,164.662,167.281,162.889Z" transform="translate(-61.635 -68.216)"/><path class="k" d="M158.371,161.24s1.479.454.672,1.723-3.521-.84-6.194,1.244C152.85,164.207,152.606,160.719,158.371,161.24Z" transform="translate(-59.541 -67.945)"/><path class="q" d="M155.032,173.525c-.143.706-1.681.983-3.488.622s-3.109-1.227-2.967-1.924,1.681-.983,3.479-.622S155.175,172.827,155.032,173.525Z" transform="translate(-58.858 -69.582)"/><path class="i" d="M176.073,174.31l-4.765-.84a3,3,0,0,1-.118.6v.092l4.8.84a.361.361,0,0,0,.412-.294.353.353,0,0,0-.328-.4Z" transform="translate(-62.468 -69.905)"/><path class="i" d="M159.551,168.489a4.272,4.272,0,0,0-.042-.731,6.026,6.026,0,0,0-4.681-5.143h-.059a6.034,6.034,0,0,0-6.723,3.362,6.332,6.332,0,0,0-.252.664c-.067.2-.118.412-.168.622a5.967,5.967,0,0,0,1.723,5.538,5.883,5.883,0,0,0,2.941,1.555,6.017,6.017,0,0,0,7.1-4.664h0a6.3,6.3,0,0,0,.16-1.2Zm-7.068,5.168h-.092a5.3,5.3,0,0,1-4.025-6.236,5.967,5.967,0,0,1,.227-.782.119.119,0,0,0,0-.05,5.3,5.3,0,0,1,4.622-3.362,5.179,5.179,0,0,1,1.387.1,5.29,5.29,0,1,1-2.135,10.362Z" transform="translate(-58.687 -68.152)"/><path class="i" d="M172.883,166.577a6.165,6.165,0,0,0-1.126-.454,4.453,4.453,0,0,0-.454-.109,5.943,5.943,0,0,0-.84-.118,6.718,6.718,0,0,0-1.008,0,6.017,6.017,0,0,0-4.589,3.017,4.89,4.89,0,0,0-.345.7v.042a5.5,5.5,0,0,0-.294,1,6,6,0,0,0,2.21,5.958,5.815,5.815,0,0,0,1.95,1.008l.336.084.168.042a5.882,5.882,0,0,0,1.681.1h.269a6.624,6.624,0,0,0,.74-.1,6.084,6.084,0,0,0,1.286-.5,6,6,0,0,0,0-10.631Zm2.387,6.387a1.232,1.232,0,0,1-.084.336,4.24,4.24,0,0,1-.151.462,5.4,5.4,0,0,1-3.3,3.16,4.923,4.923,0,0,1-.773.185h-.227a5.361,5.361,0,0,1-1.681-.067h-.261a5.236,5.236,0,0,1-2.252-1.227c-.084-.076-.176-.16-.261-.252a5.269,5.269,0,0,1-1.37-4.74,4.606,4.606,0,0,1,.37-1.135,5.278,5.278,0,0,1,2.572-2.588,5.345,5.345,0,0,1,2.244-.5h.378a6.733,6.733,0,0,1,.689.092,1.616,1.616,0,0,1,.479.126,4.781,4.781,0,0,1,.639.244c.168.076.328.16.479.244a5.3,5.3,0,0,1,2.513,5.664Z" transform="translate(-61.337 -68.694)"/><path class="i" d="M139.116,167.493a.294.294,0,0,1-.118-.05.353.353,0,0,1-.109-.5c2.387-3.723,8.127-.378,8.177-.345a.356.356,0,1,1-.361.613c-.05,0-5.2-3.034-7.219.118A.361.361,0,0,1,139.116,167.493Z" transform="translate(-57.303 -68.584)"/><path class="i" d="M164.329,170.286a.378.378,0,0,1-.227-.16c-.756-1.177-2.4-.647-2.412-.639a.361.361,0,0,1-.218-.681,2.824,2.824,0,0,1,3.227.933.353.353,0,0,1-.1.5A.378.378,0,0,1,164.329,170.286Z" transform="translate(-60.885 -69.133)"/><g class="b" transform="translate(105.308 105.024)"><path class="q" d="M170.323,175.31c-.176.891-.361,1.731-.529,2.521-1.622-.387-2.79-1.193-2.656-1.849S168.7,175.033,170.323,175.31Z" transform="translate(-167.127 -175.206)"/></g><path class="k" d="M157.366,169.358c-.193.966-.79,1.681-1.328,1.546s-.84-.975-.622-1.941.79-1.681,1.328-1.546S157.576,168.392,157.366,169.358Z" transform="translate(-59.939 -68.937)"/><path class="k" d="M168.706,171.628c-.193.958-.79,1.681-1.328,1.546s-.84-.983-.622-1.941.79-1.681,1.328-1.546S168.9,170.687,168.706,171.628Z" transform="translate(-61.749 -69.299)"/><path class="k" d="M162.869,174.113a3.656,3.656,0,0,0,.84.076.386.386,0,0,0,.286-.151.378.378,0,0,0,.092-.311l-.614-4.5a.424.424,0,0,0-.84.109l.546,4.009a3.218,3.218,0,0,1-1.546-.681.406.406,0,1,0-.521.622A3.959,3.959,0,0,0,162.869,174.113Z" transform="translate(-60.837 -69.17)"/><path class="k" d="M141.395,178.89c-.067.1-1.933,2.782-3.925,3.278h0v-2.076a7.563,7.563,0,0,0,3.925-1.2Z" transform="translate(-57.086 -70.77)"/><path class="p" d="M140.185,169.834s-2.807-5.95-6.446-2.462c-3.009,2.883-.378,12.505,4.832,10.446Z" transform="translate(-56.288 -68.757)"/><path class="r" d="M132.768,176.6a5.194,5.194,0,0,0-3.437,3.773,4.939,4.939,0,1,0,5.824-3.857h-.05a.84.84,0,0,0,.134.84,4.2,4.2,0,1,1-5.152,3.2,4.042,4.042,0,0,1,3.067-3.168Z" transform="translate(-55.771 -70.392)"/><path class="k" d="M138.85,176.614h.05a.395.395,0,0,0,.437-.361,7.564,7.564,0,0,0-3.126-6.866.4.4,0,0,0-.563.118.4.4,0,0,0,.118.555h0a6.723,6.723,0,0,1,2.765,6.118.412.412,0,0,0,.319.437Z" transform="translate(-56.785 -69.242)"/><path class="k" d="M135.589,174.028a.428.428,0,0,0,.269-.042,3.187,3.187,0,0,1,2.235-.37.406.406,0,1,0,.353-.731c-1.135-.546-2.782.286-2.967.387a.412.412,0,0,0-.168.546A.429.429,0,0,0,135.589,174.028Z" transform="translate(-56.735 -69.783)"/><path class="k" d="M144.881,157.975s-3.773,10.244-3.975,12.3c-.286,2.815-4-6.824-.261-15.068Z" transform="translate(-57.328 -66.991)"/><path class="k" d="M201.972,397.47H186.408s-3.6-17.245-4.8-26.893-1.832-32.6-1.832-32.6S167.39,342,141.48,340.5c-57.424-3.362-35.649-45.549-35.649-45.549,1.933,2.681,16.489,6.379,24.615,7.656,24.926,2.4,43.877,6.622,56.861,12.228a64.98,64.98,0,0,1,8.328,4.269c3.135,1.933,5.093,7.782,6.269,15.472C205.451,357.685,201.972,397.47,201.972,397.47Z" transform="translate(-51.39 -89.294)"/><path class="j" d="M189.1,389.289a.546.546,0,0,1-.538-.445c-2.244-11.093-3-24.9-3.605-36-.5-9.194-.975-17.884-2.151-18.926-.958-.84-4.933-.185-9.967.647-10.009,1.681-25.128,4.2-41.81.294-9.085-2.118-15.766-6.53-19.85-13.118-7.051-11.362-3.832-25.456-3.807-25.6a.571.571,0,0,1,.672-.412.546.546,0,0,1,.412.672c0,.135-3.135,13.791,3.673,24.758,3.925,6.328,10.37,10.572,19.153,12.606,16.463,3.832,31.456,1.336,41.381-.311,5.942-.983,9.522-1.58,10.875-.378s1.874,7.639,2.521,19.7c.6,11.06,1.353,24.825,3.572,35.834a.555.555,0,0,1-.429.656Z" transform="translate(-52.163 -89.417)"/><path class="j" d="M217.932,407.126h0l-17.287-.336a.555.555,0,1,1,0-1.109l17.27.37a.555.555,0,1,1,0,1.109Z" transform="translate(-67.081 -106.968)"/><path class="p" d="M217.756,436.849H206.789l-2.109-12.866-1.16-7.043h13.623l.219,7.043Z" transform="translate(-67.628 -108.765)"/><path class="r" d="M217.977,438.186H207.009l-1.572-9.58-.538-3.286h12.682l.1,3.412Z" transform="translate(-67.849 -110.102)"/><path class="s" d="M217.682,428.732l-12.245-.126-.538-3.286h12.682Z" transform="translate(-67.849 -110.102)"/><path class="t" d="M244.672,457.381H203.19a5.883,5.883,0,0,1-.538-2.3c-.261-3.513.84-9.11,1.4-12.606.067-.412.126-.8.168-1.151a12.329,12.329,0,0,0,.126-1.437c0-2.883,2.521-2.387,2.521-2.387,4.2,4.118,8.95-2.059,11.723,0l.37.286c.235.177.588.462,1.076.84.706.6,1.681,1.454,3.042,2.656,3.294,2.967,8.891,4.925,13.665,6.916q.908.378,1.681.756c.4.193.773.387,1.126.58,3.9,2.1,5.143,4.118,5.421,5.58a3.269,3.269,0,0,1-.3,2.269Z" transform="translate(-67.484 -111.977)"/><path class="u" d="M241.894,449.619c-1.067.84-3.437,2.521-5.345,2.521h-.21c-1.345-.109-6.286-2.521-10.312-4.748-2.3-1.269-4.4-2.521-5.925-3.513-2.479-1.639-2.908-2.261-3.009-2.7-.361-1.63,2.345-2.773,4.2-3.362.235.177.588.462,1.076.84-2.353.647-4.294,1.681-4.2,2.227.235.487,2.689,2.353,8.555,5.572,4.479,2.446,8.723,4.429,9.665,4.5,1.277.109,3.16-1.059,4.378-1.975C241.171,449.233,241.541,449.426,241.894,449.619Z" transform="translate(-69.79 -112.097)"/><path class="u" d="M244.68,460.8H203.2a5.882,5.882,0,0,1-.538-2.311h42.356a3.277,3.277,0,0,1-.336,2.311Z" transform="translate(-67.491 -115.396)"/><path class="u" d="M207.7,458.184h-1.235a9.1,9.1,0,0,0,2.235-6.648,11.707,11.707,0,0,0-4.37-8.295c.067-.412.126-.8.168-1.151a12.723,12.723,0,0,1,5.185,9.4,10.085,10.085,0,0,1-1.983,6.7Z" transform="translate(-67.758 -112.779)"/><path class="i" d="M226.042,444.618a.689.689,0,0,1-.168-1.353l2.588-.639a.685.685,0,1,1,.336,1.328l-2.6.639a.532.532,0,0,1-.16.025Z" transform="translate(-71.116 -112.861)"/><path class="i" d="M222.969,442a.7.7,0,0,1-.664-.521.681.681,0,0,1,.5-.84l2.6-.647a.684.684,0,1,1,.328,1.328l-2.588.639A.581.581,0,0,1,222.969,442Z" transform="translate(-70.623 -112.442)"/><path class="i" d="M229.119,446.365a.681.681,0,0,1-.664-.521.672.672,0,0,1,.5-.84l2.6-.647a.684.684,0,0,1,.328,1.328l-2.588.639Z" transform="translate(-71.604 -113.137)"/><path class="i" d="M232.2,448.085a.689.689,0,0,1-.664-.521.681.681,0,0,1,.5-.84l2.588-.647a.684.684,0,1,1,.328,1.328l-2.588.647Z" transform="translate(-72.096 -113.412)"/><path class="i" d="M235.559,449.678a.681.681,0,0,1-.16-1.344l2.588-.639a.681.681,0,1,1,.328,1.319l-2.588.647A.569.569,0,0,1,235.559,449.678Z" transform="translate(-72.632 -113.669)"/><path class="i" d="M239.207,451.038a.681.681,0,0,1-.168-1.345l2.6-.647a.684.684,0,0,1,.328,1.328l-2.6.647Z" transform="translate(-73.213 -113.886)"/><path class="v" d="M252.707,293.509v3.437c0,1.983-1.2,3.588-2.681,3.588H63.912c-1.479,0-2.672-1.605-2.672-3.588v-3.437c0-1.983,1.193-3.588,2.672-3.588H250.026C251.505,289.92,252.707,291.525,252.707,293.509Z" transform="translate(-44.92 -88.492)"/><rect class="w" width="191.467" height="1.58" transform="translate(16.32 206.109)"/><path class="w" d="M248.915,311.4H73.97a1.42,1.42,0,0,1-1.42-1.42V302.5H250.335v7.479a1.42,1.42,0,0,1-1.42,1.42Z" transform="translate(-46.725 -90.499)"/><rect class="w" width="156.456" height="6.101" transform="translate(37.877 264.803)"/><path class="v" d="M71.449,438.678,101.737,313.09H91.106L60.81,438.678Z" transform="translate(-44.851 -92.19)"/><path class="v" d="M280.486,438.678,250.19,313.09h10.639l30.288,125.588Z" transform="translate(-75.077 -92.19)"/><rect class="r" width="3.32" height="25.052" transform="translate(30.027 173.056) rotate(-8.71)"/><path class="p" d="M80.838,254.933l-3.278.5.723-2.5.37-1.3.748,1.126Z" transform="translate(-47.524 -82.38)"/><rect class="k" width="3.32" height="1.824" transform="translate(33.545 196.021) rotate(-8.71)"/><path class="l" d="M85.376,286.488l-2.849.437a.227.227,0,0,1-.252-.185l-.185-1.219L85.376,285l.185,1.21a.218.218,0,0,1-.185.277Z" transform="translate(-48.247 -87.706)"/><path class="k" d="M79.538,252.756l-1.118.176.37-1.3Z" transform="translate(-47.662 -82.38)"/><rect class="s" width="3.32" height="1.303" transform="translate(33.362 194.727) rotate(-8.71)"/><path class="s" d="M78.749,257.405l2.807,18.337a.261.261,0,0,0,.294.219h0a.26.26,0,0,0,.21-.294L79.254,257.33a.261.261,0,0,0-.294-.21h0A.252.252,0,0,0,78.749,257.405Z" transform="translate(-47.714 -83.256)"/><path class="s" d="M80.279,257.174l2.807,18.337a.261.261,0,0,0,.294.21h0a.26.26,0,0,0,.21-.286L80.784,257.1a.26.26,0,0,0-.294-.218h0A.261.261,0,0,0,80.279,257.174Z" transform="translate(-47.958 -83.218)"/><rect class="x" width="3.32" height="25.052" transform="matrix(1, -0.003, 0.003, 1, 35.942, 172.676)"/><path class="p" d="M87.9,255.017l-3.32.008,1.084-2.37.563-1.235.571,1.227Z" transform="translate(-48.645 -82.347)"/><rect class="k" width="3.32" height="1.824" transform="matrix(1, -0.003, 0.003, 1, 36.019, 195.912)"/><path class="l" d="M87.781,286.956H84.9a.219.219,0,0,1-.219-.219V285.51h3.362v1.252a.219.219,0,0,1-.261.193Z" transform="translate(-48.661 -87.788)"/><path class="k" d="M87,252.647l-1.135.008.563-1.235Z" transform="translate(-48.851 -82.347)"/><rect class="y" width="3.32" height="1.303" transform="matrix(1, -0.003, 0.003, 1, 36.006, 194.601)"/><path class="y" d="M85.56,257.131l.067,18.547a.244.244,0,0,0,.252.252h0a.252.252,0,0,0,.252-.252l-.059-18.556a.261.261,0,0,0-.252-.252h0a.26.26,0,0,0-.261.26Z" transform="translate(-48.801 -83.217)"/><path class="y" d="M87.11,257.122l.059,18.547a.252.252,0,0,0,.261.252h0a.252.252,0,0,0,.252-.252l-.067-18.547a.244.244,0,0,0-.252-.252h0A.252.252,0,0,0,87.11,257.122Z" transform="translate(-49.049 -83.217)"/><rect class="z" width="25.052" height="3.32" transform="translate(38.177 197.38) rotate(-81.91)"/><path class="p" d="M94.726,255.4l-3.286-.471,1.412-2.193.74-1.135.387,1.294Z" transform="translate(-49.74 -82.375)"/><rect class="k" width="3.32" height="1.824" transform="translate(38.411 195.562) rotate(8.09)"/><path class="l" d="M90.082,286.944l-2.857-.4a.218.218,0,0,1-.185-.252l.176-1.219,3.286.471-.134,1.219a.218.218,0,0,1-.286.185Z" transform="translate(-49.037 -87.718)"/><path class="k" d="M94.246,252.894l-1.126-.16.74-1.135Z" transform="translate(-50.008 -82.375)"/><rect class="u" width="1.303" height="3.32" transform="translate(38.433 195.557) rotate(-81.91)"/><path class="u" d="M91.7,257.108,89.1,275.471a.252.252,0,0,0,.219.286h0a.26.26,0,0,0,.286-.219l2.605-18.363a.244.244,0,0,0-.21-.286h0A.261.261,0,0,0,91.7,257.108Z" transform="translate(-49.366 -83.219)"/><path class="u" d="M93.243,257.328,90.63,275.691a.26.26,0,0,0,.219.294h0a.26.26,0,0,0,.286-.218L93.739,257.4a.252.252,0,0,0-.21-.286h0a.252.252,0,0,0-.286.218Z" transform="translate(-49.61 -83.254)"/><path class="l" d="M93.236,267.49l-.176,1.345-.16,1.219-.235,1.849-.16,1.21-.235,1.866-.16,1.193-.244,1.882-.151,1.177-.244,1.9-.151,1.16-.244,1.916-.151,1.143-.126.992H77.739l-.126-.992-.151-1.143-.244-1.916-.151-1.16-.244-1.9-.151-1.177-.244-1.882-.151-1.193-.244-1.866-.16-1.21-.235-1.849-.16-1.219-.168-1.345Z" transform="translate(-47.165 -84.912)"/><path class="aa" d="M93.091,269.09l-.16,1.219H75.67l-.16-1.219Z" transform="translate(-47.197 -85.167)"/><path class="aa" d="M92.771,272.74l-.16,1.21H76.14l-.16-1.21Z" transform="translate(-47.272 -85.75)"/><path class="aa" d="M92.453,276.4l-.16,1.193H76.611L76.46,276.4Z" transform="translate(-47.349 -86.334)"/><path class="aa" d="M92.124,280.06l-.151,1.177H77.081l-.151-1.177Z" transform="translate(-47.424 -86.918)"/><path class="aa" d="M91.8,283.72l-.151,1.16h-14.1l-.151-1.16Z" transform="translate(-47.499 -87.502)"/><path class="aa" d="M91.484,287.38l-.151,1.143H78.021l-.151-1.143Z" transform="translate(-47.574 -88.086)"/><path class="k" d="M270.08,209.96l-11.144,47.062-.286,1.244-.756,3.168a3.034,3.034,0,0,1-2.958,2.345H179.923a3.042,3.042,0,0,1-2.958-3.74l12.177-51.483a3.034,3.034,0,0,1,2.958-2.336h75.013a3.051,3.051,0,0,1,2.967,3.74Z" transform="translate(-63.377 -75.133)"/><path class="j" d="M259.672,266.7l-.286,1.244h-77.9V266.7Z" transform="translate(-64.112 -84.786)"/><path class="r" d="M214.148,218.932a7.622,7.622,0,0,1-7.169,6.051,4.883,4.883,0,0,1-4.916-6.051,7.622,7.622,0,0,1,7.169-6.042,4.874,4.874,0,0,1,4.916,6.042Z" transform="translate(-67.373 -76.196)"/><path class="k" d="M208.142,218.48c-.126.664-.462,1.21-.748,1.21s-.429-.546-.3-1.21.462-1.21.748-1.21S208.268,217.808,208.142,218.48Z" transform="translate(-68.191 -76.896)"/><path class="k" d="M211.892,218.48c-.126.664-.462,1.21-.748,1.21s-.429-.546-.3-1.21.462-1.21.756-1.21S212.018,217.808,211.892,218.48Z" transform="translate(-68.79 -76.896)"/><path class="k" d="M208.176,223.029a2.681,2.681,0,0,1-2.706-2.63.319.319,0,0,1,.252-.311.21.21,0,0,1,.277.2,2.235,2.235,0,0,0,2.277,2.21,3.589,3.589,0,0,0,3.1-2.21.311.311,0,0,1,.345-.2.218.218,0,0,1,.143.311S210.773,223.029,208.176,223.029Z" transform="translate(-67.94 -77.344)"/><path class="l" d="M257.74,253.034c.059,3.126,5.362,7.043,5.362,7.043s6.152-3.916,6.9-7.043c.84-3.362-3.059-4.429-5.933-1.874C261.765,248.6,257.664,249.647,257.74,253.034Z" transform="translate(-76.282 -82.078)"/><path class="j" d="M242.161,241.753a6.723,6.723,0,0,1-6.513,5.883,5.16,5.16,0,0,1-5.227-5.883,6.723,6.723,0,0,1,6.521-5.883,5.152,5.152,0,0,1,5.219,5.883Z" transform="translate(-71.914 -79.865)"/><path class="j" d="M195.075,206.22,182.107,263.8h-2.185a3.034,3.034,0,0,1-2.958-3.74l12.177-51.508a3.034,3.034,0,0,1,2.958-2.336Z" transform="translate(-63.377 -75.133)"/><path class="i" d="M223.948,274.74l-2.277,12.8h7.522l2.269-12.8Z" transform="translate(-70.525 -86.069)"/><path class="i" d="M208.241,286.705l1.538-2.168a2.916,2.916,0,0,1,2.387-1.227h20.606a2.924,2.924,0,0,1,2.6,1.572l1.034,1.983a1.4,1.4,0,0,1-1.235,2.042H209.376a1.4,1.4,0,0,1-1.135-2.2Z" transform="translate(-68.341 -87.437)"/><path class="i" d="M157.2,289h61.9l.672-2.336a2.3,2.3,0,0,0-2.21-2.933H160.419a2.3,2.3,0,0,0-2.21,1.681Z" transform="translate(-60.235 -87.504)"/><ellipse class="d" cx="46.625" cy="4.605" rx="46.625" ry="4.605" transform="translate(473.184 342.774)"/><rect class="k" width="62.912" height="4.984" rx="2.41" transform="translate(487.47 309.091)"/><rect class="j" width="60.971" height="10.53" rx="2.06" transform="translate(488.504 253.886)"/><path class="v" d="M635.21,290.412s-24.245-4.79-31.019-21.707,17.976-29.557,31.019-20.489C649.161,257.931,635.21,290.412,635.21,290.412Z" transform="translate(-131.394 -81.353)"/><path class="k" d="M651.758,335.356a.445.445,0,0,1-.437-.378c-2.319-15.715-11.69-38.322-19.136-54.516-8.068-17.564-15.69-31.582-15.766-31.725a.44.44,0,1,1,.773-.42c.076.143,7.706,14.186,15.791,31.775,7.471,16.253,16.867,38.944,19.2,54.76a.437.437,0,0,1-.37.5Z" transform="translate(-133.521 -81.815)"/><path class="k" d="M634.838,290.427a.436.436,0,0,1-.386-.227c-10.547-19.648-27.674-33.893-27.851-34.036a.445.445,0,1,1,.563-.681c.168.143,17.43,14.5,28.052,34.3a.429.429,0,0,1-.177.6A.445.445,0,0,1,634.838,290.427Z" transform="translate(-131.93 -82.973)"/><path class="k" d="M634.9,294.309a.446.446,0,0,1-.336-.16,84.223,84.223,0,0,0-20.825-17.808,52.442,52.442,0,0,0-9.656-4.664.437.437,0,0,1-.286-.555.445.445,0,0,1,.546-.286,52.729,52.729,0,0,1,9.816,4.731,85.055,85.055,0,0,1,21.069,18.018.428.428,0,0,1-.05.613A.387.387,0,0,1,634.9,294.309Z" transform="translate(-131.512 -85.443)"/><path class="k" d="M637.409,285.147a.454.454,0,0,1-.42-.294c-5.883-17.354-3.731-38.44-3.714-38.658a.437.437,0,1,1,.84.092c0,.21-2.177,21.111,3.673,38.271a.437.437,0,0,1-.277.555A.378.378,0,0,1,637.409,285.147Z" transform="translate(-136.157 -81.433)"/><path class="k" d="M639.752,289.945a.437.437,0,0,1-.437-.37,61.055,61.055,0,0,1,1.067-25.523,40.577,40.577,0,0,1,3.715-9.622.437.437,0,1,1,.748.454,40.84,40.84,0,0,0-3.622,9.429,60.075,60.075,0,0,0-1.042,25.119.437.437,0,0,1-.361.5Z" transform="translate(-137.045 -82.794)"/><path class="v" d="M670.865,295.83S695.354,292.468,703.11,276s-16.186-30.616-29.742-22.321C658.864,262.55,670.865,295.83,670.865,295.83Z" transform="translate(-141.475 -82.316)"/><path class="k" d="M660.617,335h0a.445.445,0,0,1-.437-.445c.093-8.093,1.857-17.312,5.244-27.4a179.9,179.9,0,0,1,11.11-25.649,236.9,236.9,0,0,1,16.018-26.447.44.44,0,1,1,.714.513A233.777,233.777,0,0,0,677.3,281.924c-7.294,14.009-16.035,34.507-16.253,52.642A.437.437,0,0,1,660.617,335Z" transform="translate(-140.514 -82.899)"/><path class="k" d="M672.917,296.09a.377.377,0,0,1-.227-.067.428.428,0,0,1-.143-.6c11.765-19.144,29.859-32.448,30.035-32.582a.439.439,0,1,1,.521.706c-.177.134-18.119,13.345-29.809,32.33a.445.445,0,0,1-.378.21Z" transform="translate(-142.478 -84.156)"/><path class="k" d="M672.228,299.953a.437.437,0,0,1-.311-.74,85.007,85.007,0,0,1,22.094-16.741A52.586,52.586,0,0,1,704.1,278.33a.445.445,0,0,1,.218.84,51.605,51.605,0,0,0-9.917,4.084,83.947,83.947,0,0,0-21.85,16.547A.463.463,0,0,1,672.228,299.953Z" transform="translate(-142.368 -86.642)"/><path class="k" d="M675.127,290.679a.429.429,0,0,1-.168,0,.437.437,0,0,1-.235-.571c6.849-16.808,5.942-37.818,5.933-37.986a.437.437,0,0,1,.412-.462.445.445,0,0,1,.462.42c0,.21.933,21.388-6,38.364a.429.429,0,0,1-.4.235Z" transform="translate(-142.83 -82.385)"/><path class="k" d="M672.613,295.247h-.092a.437.437,0,0,1-.336-.521,60.223,60.223,0,0,0,.454-25.136,40.139,40.139,0,0,0-3.067-9.631.437.437,0,0,1,.193-.588.429.429,0,0,1,.588.185,40.6,40.6,0,0,1,3.135,9.824,61.1,61.1,0,0,1-.445,25.54A.437.437,0,0,1,672.613,295.247Z" transform="translate(-142.006 -83.607)"/><path class="v" d="M656.586,257.309s-20.749-13.446-20.766-31.649,27.657-20.85,36.406-7.564C681.588,232.274,656.586,257.309,656.586,257.309Z" transform="translate(-136.626 -75.697)"/><path class="k" d="M656.913,303.989h-.067a.446.446,0,0,1-.328-.53c3.664-15.455,3.362-39.919,2.42-57.727-.992-19.329-2.882-35.145-2.9-35.3a.429.429,0,0,1,.378-.487.437.437,0,0,1,.488.378c0,.16,1.916,16.035,2.908,35.372.924,17.858,1.252,42.415-2.437,57.987A.437.437,0,0,1,656.913,303.989Z" transform="translate(-139.853 -75.727)"/><path class="k" d="M657.829,256.009a.445.445,0,0,1-.437-.395c-2.521-22.153-13.152-41.734-13.261-41.927a.454.454,0,0,1,.177-.6.445.445,0,0,1,.6.177c.109.193,10.824,19.917,13.362,42.247a.437.437,0,0,1-.387.487Z" transform="translate(-137.945 -76.221)"/><path class="k" d="M656.449,259.622a.437.437,0,0,1-.412-.294,84.041,84.041,0,0,0-12.749-24.254,52.106,52.106,0,0,0-7.244-7.917.437.437,0,0,1,.555-.672,51.348,51.348,0,0,1,7.362,8.026,85.074,85.074,0,0,1,12.908,24.531.437.437,0,0,1-.277.555A.429.429,0,0,1,656.449,259.622Z" transform="translate(-136.641 -78.354)"/><path class="k" d="M660.18,252.088h0a.446.446,0,0,1-.42-.462c.933-18.3,10.765-37.087,10.866-37.28a.438.438,0,0,1,.773.412c-.1.185-9.841,18.808-10.766,36.91a.437.437,0,0,1-.454.42Z" transform="translate(-140.447 -76.392)"/><path class="k" d="M660.307,257.727h-.092a.437.437,0,0,1-.336-.521,61.987,61.987,0,0,1,10.471-23.43,42.6,42.6,0,0,1,7.034-7.673.44.44,0,1,1,.538.7,41.773,41.773,0,0,0-6.883,7.564,60.979,60.979,0,0,0-10.3,23.06.429.429,0,0,1-.429.3Z" transform="translate(-140.465 -78.292)"/><path class="t" d="M680.676,318.533l-.723,1.916-.454,1.219-1.319,3.479-.454,1.219-1.353,3.58-.454,1.21-5.782,15.354H638.564l-5.782-15.354-.454-1.21-1.353-3.58-.454-1.219-1.319-3.479-.454-1.219-.723-1.916a2.017,2.017,0,0,1,1.882-2.723h48.886a2.017,2.017,0,0,1,1.882,2.723Z" transform="translate(-135.362 -92.624)"/><path class="u" d="M680.115,321.33l-.462,1.219H629.372l-.462-1.219Z" transform="translate(-135.524 -93.505)"/><path class="u" d="M678.679,326.92l-.454,1.219H631.474l-.454-1.219Z" transform="translate(-135.86 -94.397)"/><path class="u" d="M677.215,332.63l-.454,1.21H633.624l-.454-1.21Z" transform="translate(-136.203 -95.308)"/><path class="k" d="M643.443,364.86l-1.748,5.647-24.38,78.577H612.55l15.463-76.972,1.454-7.253Z" transform="translate(-132.912 -100.453)"/><path class="k" d="M700.5,449.084h-4.765l-25.094-80.9-1.034-3.32h13.976l.353,1.765h0Z" transform="translate(-142.02 -100.453)"/><rect class="j" width="62.912" height="4.984" rx="2.41" transform="translate(487.47 298.259)"/><ellipse class="d" cx="22.791" cy="22.506" rx="22.791" ry="22.506" transform="translate(141.766 17.475)"/><ellipse class="t" cx="22.791" cy="22.506" rx="22.791" ry="22.506" transform="translate(141.766 14.55)"/><ellipse class="i" cx="18.522" cy="18.295" rx="18.522" ry="18.295" transform="translate(146.035 18.761)"/><path class="d" d="M252.625,90.811a11.809,11.809,0,0,1-.059,1.445,18.547,18.547,0,0,0-36.977,0c-.042-.479-.059-.958-.059-1.445a18.526,18.526,0,1,1,37.053,0Z" transform="translate(-69.545 -53.756)"/><path class="k" d="M235.815,94.122a.487.487,0,0,1-.378-.185l-9.085-12.076a.454.454,0,0,1,.092-.639.462.462,0,0,1,.647.092l8.874,11.766,10.085-4.362a.455.455,0,1,1,.37.832l-10.412,4.521A.479.479,0,0,1,235.815,94.122Z" transform="translate(-71.258 -55.167)"/></g></g></svg>